# File created by Blade
# Date/Time:  Tue Jan 27 18:05:41 2015
# Frame Rate: 120.000 fps
#------------------------------------------------------
:FULLY-SPECIFIED
:DEGREES
3799
root -1.633614 31.918713 -6.004391 5.691162 0.770346 2.135580
Spine -7.125537 -16.671465 -1.962622
Head 6.694247 2.224425 0.424430
LeftShoulder -11.488568 17.939667 9.420928
LeftArm 20.964487 36.190359 -73.721814
LeftForeArm -0.500633 -0.000000 17.488826
LeftHand -11.468493 -0.000000 -3.410234
LeftHandThumb1 -26.253704 0.000000 33.147579
RightShoulder -12.206439 16.780836 -41.534558
RightArm 37.592982 74.613566 64.397344
RightForeArm 31.696814 -0.000000 96.959842
RightHand -3.892445 -0.000000 8.697408
RightHandThumb1 -24.326973 -0.000000 -32.862282
LeftUpLeg 0.309330 3.220087 -0.063557
LeftLeg 0.826767 -0.000000 -0.000000
LeftFoot -19.604055 17.847977 -26.505551
LeftToeBase 8.674904 -0.000000 -0.000000
RightUpLeg 1.005901 0.114633 -2.742527
RightLeg -2.936958 -0.000000 0.000000
RightFoot -14.127519 -12.028985 9.510375
RightToeBase 4.636907 -0.000000 -0.000000
3800
root -1.629374 31.918771 -6.012482 5.713938 0.808757 2.151412
Spine -7.140384 -16.687189 -1.965504
Head 6.656158 2.266194 0.409460
LeftShoulder -11.479660 17.924535 9.436388
LeftArm 20.930291 36.233508 -73.796220
LeftForeArm -0.546934 -0.000000 17.460592
LeftHand -11.383759 -0.000000 -3.382965
LeftHandThumb1 -26.253704 0.000000 33.147579
RightShoulder -12.221039 16.752023 -41.531149
RightArm 37.369251 74.553019 64.145666
RightForeArm 31.679640 -0.000000 96.814749
RightHand -4.038525 0.000000 8.750367
RightHandThumb1 -24.326973 -0.000000 -32.862282
LeftUpLeg 0.272647 3.206831 -0.079722
LeftLeg 0.814434 -0.000000 -0.000000
LeftFoot -19.567352 17.817350 -26.477283
LeftToeBase 8.657485 -0.000000 -0.000000
RightUpLeg 0.979095 0.142661 -2.761690
RightLeg -2.947034 -0.000000 0.000000
RightFoot -14.132749 -12.110916 9.546245
RightToeBase 4.781461 -0.000000 -0.000000
3801
root -1.624532 31.919316 -6.016993 5.716348 0.861642 2.162529
Spine -7.143870 -16.718420 -1.961342
Head 6.638991 2.311961 0.391135
LeftShoulder -11.482722 17.938511 9.428652
LeftArm 20.925472 36.239153 -73.851349
LeftForeArm -0.505157 -0.000000 17.449154
LeftHand -11.401019 -0.000000 -3.445478
LeftHandThumb1 -26.253704 0.000000 33.147579
RightShoulder -12.231848 16.736748 -41.533198
RightArm 37.055403 74.469422 63.817191
RightForeArm 31.662727 -0.000000 96.699453
RightHand -4.063241 -0.000000 8.701330
RightHandThumb1 -24.326973 -0.000000 -32.862282
LeftUpLeg 0.270958 3.181430 -0.093229
LeftLeg 0.781915 -0.000000 -0.000000
LeftFoot -19.520872 17.802819 -26.446320
LeftToeBase 8.661492 -0.000000 -0.000000
RightUpLeg 0.982606 0.097029 -2.775155
RightLeg -2.955777 -0.000000 0.000000
RightFoot -14.121737 -12.113683 9.527134
RightToeBase 4.594602 -0.000000 -0.000000
3802
root -1.620488 31.919651 -6.022303 5.718305 0.905964 2.176165
Spine -7.143620 -16.731326 -1.966049
Head 6.618073 2.353940 0.372538
LeftShoulder -11.470147 17.929656 9.428921
LeftArm 20.902375 36.263118 -73.909191
LeftForeArm -0.471026 -0.000000 17.442862
LeftHand -11.456838 -0.000000 -3.432213
LeftHandThumb1 -26.253704 0.000000 33.147579
RightShoulder -12.243984 16.721516 -41.533069
RightArm 36.707399 74.406092 63.474595
RightForeArm 31.689399 -0.000000 96.601866
RightHand -4.066467 -0.000000 8.447149
RightHandThumb1 -24.326973 -0.000000 -32.862282
LeftUpLeg 0.259877 3.191670 -0.109526
LeftLeg 0.765119 -0.000000 -0.000000
LeftFoot -19.480977 17.763143 -26.432964
LeftToeBase 8.673129 -0.000000 -0.000000
RightUpLeg 0.970733 0.094178 -2.793251
RightLeg -2.940792 -0.000000 0.000000
RightFoot -14.134663 -12.145854 9.536975
RightToeBase 4.587393 -0.000000 -0.000000
3803
root -1.614856 31.919943 -6.027508 5.718820 0.954977 2.186932
Spine -7.140527 -16.749347 -1.964586
Head 6.587167 2.392268 0.356973
LeftShoulder -11.453674 17.921535 9.430463
LeftArm 20.874731 36.276501 -73.979792
LeftForeArm -0.416573 -0.000000 17.445846
LeftHand -11.477898 -0.000000 -3.483232
LeftHandThumb1 -26.253704 0.000000 33.147579
RightShoulder -12.252505 16.712159 -41.519021
RightArm 36.424874 74.342136 63.175546
RightForeArm 31.657251 -0.000000 96.522384
RightHand -4.107317 0.000000 8.386047
RightHandThumb1 -24.326973 -0.000000 -32.862282
LeftUpLeg 0.257543 3.159957 -0.129478
LeftLeg 0.733975 -0.000000 -0.000000
LeftFoot -19.441271 17.782225 -26.387146
LeftToeBase 8.656126 -0.000000 -0.000000
RightUpLeg 0.968524 0.080445 -2.809621
RightLeg -2.938969 -0.000000 0.000000
RightFoot -14.144305 -12.178249 9.553948
RightToeBase 4.590451 -0.000000 -0.000000
3804
root -1.609716 31.920370 -6.033033 5.717163 1.004725 2.196865
Spine -7.136688 -16.769004 -1.956955
Head 6.571357 2.443592 0.317562
LeftShoulder -11.442942 17.894238 9.435550
LeftArm 20.853481 36.348336 -74.034712
LeftForeArm -0.442152 -0.000000 17.425617
LeftHand -11.403255 -0.000000 -3.525490
LeftHandThumb1 -26.253704 0.000000 33.147579
RightShoulder -12.260037 16.695419 -41.519708
RightArm 36.256980 74.313771 63.013865
RightForeArm 31.535262 0.000000 96.451777
RightHand -4.151268 -0.000000 8.438331
RightHandThumb1 -24.326973 -0.000000 -32.862282
LeftUpLeg 0.244178 3.161363 -0.143855
LeftLeg 0.730652 -0.000000 -0.000000
LeftFoot -19.411574 17.746856 -26.378001
LeftToeBase 8.629096 -0.000000 -0.000000
RightUpLeg 0.968410 0.073250 -2.824882
RightLeg -2.938742 -0.000000 0.000000
RightFoot -14.157008 -12.220848 9.571741
RightToeBase 4.634643 -0.000000 -0.000000
3805
root -1.605243 31.921013 -6.038420 5.715818 1.043853 2.208563
Spine -7.128643 -16.774800 -1.961898
Head 6.535755 2.472726 0.303449
LeftShoulder -11.439200 17.899022 9.446701
LeftArm 20.879154 36.425347 -74.067633
LeftForeArm -0.477513 -0.000000 17.399334
LeftHand -11.335931 -0.000000 -3.536252
LeftHandThumb1 -26.253704 0.000000 33.147579
RightShoulder -12.272150 16.714029 -41.495908
RightArm 35.956541 74.251898 62.689480
RightForeArm 31.467520 0.000000 96.407802
RightHand -4.205574 -0.000000 8.403089
RightHandThumb1 -24.326973 -0.000000 -32.862282
LeftUpLeg 0.238013 3.131421 -0.158929
LeftLeg 0.718097 -0.000000 -0.000000
LeftFoot -19.385490 17.742453 -26.364670
LeftToeBase 8.630713 -0.000000 -0.000000
RightUpLeg 0.971797 0.082946 -2.841057
RightLeg -2.949934 -0.000000 0.000000
RightFoot -14.152887 -12.271054 9.579258
RightToeBase 4.653547 -0.000000 -0.000000
3806
root -1.600130 31.921820 -6.044109 5.708674 1.083788 2.215597
Spine -7.115305 -16.785972 -1.954946
Head 6.511063 2.503644 0.274811
LeftShoulder -11.422964 17.889396 9.444392
LeftArm 20.873691 36.470844 -74.108589
LeftForeArm -0.426452 -0.000000 17.410203
LeftHand -11.416030 -0.000000 -3.511372
LeftHandThumb1 -26.253704 0.000000 33.147579
RightShoulder -12.279076 16.690032 -41.471851
RightArm 35.853337 74.217989 62.571228
RightForeArm 31.394544 -0.000000 96.385560
RightHand -4.249306 -0.000000 8.492707
RightHandThumb1 -24.326973 -0.000000 -32.862282
LeftUpLeg 0.236470 3.111184 -0.170098
LeftLeg 0.702638 -0.000000 -0.000000
LeftFoot -19.361224 17.723666 -26.359362
LeftToeBase 8.651161 -0.000000 -0.000000
RightUpLeg 0.972990 0.071342 -2.853219
RightLeg -2.942591 -0.000000 0.000000
RightFoot -14.152243 -12.293907 9.597680
RightToeBase 4.620462 -0.000000 -0.000000
3807
root -1.594464 31.922661 -6.050894 5.708863 1.121520 2.224655
Spine -7.107867 -16.792439 -1.946109
Head 6.483336 2.527636 0.243975
LeftShoulder -11.418011 17.879294 9.448268
LeftArm 20.886083 36.541044 -74.145441
LeftForeArm -0.414477 -0.000000 17.400111
LeftHand -11.366918 0.000000 -3.580733
LeftHandThumb1 -26.253704 0.000000 33.147579
RightShoulder -12.291038 16.656290 -41.451023
RightArm 35.763991 74.182747 62.474736
RightForeArm 31.440845 -0.000000 96.381129
RightHand -4.253503 -0.000000 8.387351
RightHandThumb1 -24.326973 -0.000000 -32.862282
LeftUpLeg 0.218263 3.112174 -0.191546
LeftLeg 0.708116 -0.000000 -0.000000
LeftFoot -19.345965 17.710826 -26.361984
LeftToeBase 8.635364 -0.000000 -0.000000
RightUpLeg 0.963147 0.055354 -2.869967
RightLeg -2.934958 -0.000000 0.000000
RightFoot -14.152609 -12.310822 9.614124
RightToeBase 4.651001 -0.000000 -0.000000
3808
root -1.589301 31.923123 -6.057264 5.702275 1.162896 2.227738
Spine -7.090485 -16.794590 -1.934667
Head 6.452934 2.546336 0.215965
LeftShoulder -11.408742 17.865637 9.446835
LeftArm 20.888915 36.580457 -74.182210
LeftForeArm -0.377798 -0.000000 17.420119
LeftHand -11.408758 0.000000 -3.684266
LeftHandThumb1 -26.253704 0.000000 33.147579
RightShoulder -12.308920 16.676031 -41.432512
RightArm 35.502697 74.124426 62.203301
RightForeArm 31.483514 -0.000000 96.387702
RightHand -4.243603 0.000000 8.373144
RightHandThumb1 -24.326973 -0.000000 -32.862282
LeftUpLeg 0.209063 3.102697 -0.196528
LeftLeg 0.700858 -0.000000 -0.000000
LeftFoot -19.288258 17.699172 -26.263252
LeftToeBase 8.607208 -0.000000 -0.000000
RightUpLeg 0.956935 0.021705 -2.878612
RightLeg -2.919992 -0.000000 0.000000
RightFoot -14.149238 -12.319987 9.610681
RightToeBase 4.621989 -0.000000 -0.000000
3809
root -1.582702 31.923753 -6.065088 5.697858 1.195607 2.237276
Spine -7.070790 -16.795737 -1.926038
Head 6.414936 2.569290 0.183980
LeftShoulder -11.402626 17.850211 9.446027
LeftArm 20.896859 36.637553 -74.215771
LeftForeArm -0.387613 -0.000000 17.436060
LeftHand -11.402706 -0.000000 -3.672047
LeftHandThumb1 -26.253704 0.000000 33.147579
RightShoulder -12.320070 16.609489 -41.417123
RightArm 35.532040 74.117964 62.252575
RightForeArm 31.535075 -0.000000 96.420662
RightHand -4.213099 -0.000000 8.448221
RightHandThumb1 -24.326973 -0.000000 -32.862282
LeftUpLeg 0.191854 3.092590 -0.217516
LeftLeg 0.711242 -0.000000 -0.000000
LeftFoot -19.294652 17.679532 -26.288557
LeftToeBase 8.668589 -0.000000 -0.000000
RightUpLeg 0.949150 0.020185 -2.897377
RightLeg -2.910310 -0.000000 0.000000
RightFoot -14.154532 -12.351865 9.619317
RightToeBase 4.634187 -0.000000 -0.000000
3810
root -1.576172 31.924433 -6.071648 5.688963 1.229100 2.246090
Spine -7.049288 -16.783814 -1.914675
Head 6.380675 2.573559 0.146058
LeftShoulder -11.390053 17.857525 9.440787
LeftArm 20.936552 36.700205 -74.228877
LeftForeArm -0.360185 0.000000 17.454881
LeftHand -11.451490 0.000000 -3.602415
LeftHandThumb1 -26.253704 0.000000 33.147579
RightShoulder -12.335610 16.577951 -41.414087
RightArm 35.324278 74.079238 62.062359
RightForeArm 31.632647 -0.000000 96.504253
RightHand -4.253245 -0.000000 8.394430
RightHandThumb1 -24.326973 -0.000000 -32.862282
LeftUpLeg 0.185110 3.061348 -0.234154
LeftLeg 0.710839 -0.000000 -0.000000
LeftFoot -19.278275 17.680888 -26.268905
LeftToeBase 8.679120 -0.000000 -0.000000
RightUpLeg 0.948373 0.018424 -2.916498
RightLeg -2.900797 -0.000000 0.000000
RightFoot -14.170661 -12.365440 9.660563
RightToeBase 4.680142 -0.000000 -0.000000
3811
root -1.569147 31.924865 -6.078318 5.677868 1.262205 2.258040
Spine -7.021466 -16.767986 -1.910205
Head 6.339514 2.585097 0.122360
LeftShoulder -11.367888 17.815346 9.463498
LeftArm 20.910993 36.778487 -74.295391
LeftForeArm -0.417429 -0.000000 17.469345
LeftHand -11.415198 -0.000000 -3.437738
LeftHandThumb1 -26.253704 0.000000 33.147579
RightShoulder -12.363573 16.576011 -41.411841
RightArm 35.144320 74.047914 61.893667
RightForeArm 31.645214 0.000000 96.565640
RightHand -4.241967 -0.000000 8.416149
RightHandThumb1 -24.326973 -0.000000 -32.862282
LeftUpLeg 0.179665 3.047478 -0.258347
LeftLeg 0.713247 -0.000000 -0.000000
LeftFoot -19.249105 17.682583 -26.223601
LeftToeBase 8.667578 -0.000000 -0.000000
RightUpLeg 0.948733 0.003096 -2.937928
RightLeg -2.894204 -0.000000 0.000000
RightFoot -14.163987 -12.385793 9.658686
RightToeBase 4.639726 -0.000000 -0.000000
